<?xml version="1.0" encoding="UTF-8"?>
<svg xmlns="http://www.w3.org/2000/svg" xmlns:xlink="http://www.w3.org/1999/xlink" viewBox="0 0 30 30" width="30px" height="30px">
<g id="surface140603595">
<path style=" stroke:none;fill-rule:nonzero;fill:rgb(0%,0%,0%);fill-opacity:1;" d="M 15 3 C 8.371094 3 3 8.371094 3 15 C 3 21.628906 8.371094 27 15 27 C 21.628906 27 27 21.628906 27 15 C 27 8.371094 21.628906 3 15 3 Z M 21 16 L 16 16 L 16 21 C 16 21.554688 15.550781 22 15 22 C 14.449219 22 14 21.554688 14 21 L 14 16 L 9 16 C 8.449219 16 8 15.554688 8 15 C 8 14.445312 8.449219 14 9 14 L 14 14 L 14 9 C 14 8.445312 14.449219 8 15 8 C 15.550781 8 16 8.445312 16 9 L 16 14 L 21 14 C 21.550781 14 22 14.445312 22 15 C 22 15.554688 21.550781 16 21 16 Z M 21 16 "/>
<path style=" stroke:none;fill-rule:nonzero;fill:rgb(80.000001%,80.000001%,80.000001%);fill-opacity:1;" d="M 17.300781 12.023438 L 17.300781 12.667969 L 15.386719 12.667969 L 15.386719 17.976562 L 14.605469 17.976562 L 14.605469 12.667969 L 12.699219 12.667969 L 12.699219 12.023438 Z M 17.300781 12.023438 "/>
</g>
</svg>
